<svg width="543" height="384" viewBox="0 0 543 384" fill="none" xmlns="http://www.w3.org/2000/svg">
<path opacity="0.1" d="M260.803 384C399.765 384 512.416 376.951 512.416 368.255C512.416 359.559 399.765 352.509 260.803 352.509C121.841 352.509 9.19016 359.559 9.19016 368.255C9.19016 376.951 121.841 384 260.803 384Z" fill="#3B9CBE"/>
<g opacity="0.2">
<path opacity="0.2" d="M468.465 368.961C468.234 369.438 467.965 369.892 467.66 370.317C464.981 368.255 462.258 366.235 459.489 364.257C459.545 364.13 459.605 363.998 459.67 363.871C460.313 362.515 461.276 361.372 462.461 360.56C463.991 359.544 465.716 359.3 467.112 360.123C468.507 360.946 469.325 362.632 469.409 364.582C469.458 366.108 469.132 367.619 468.465 368.961Z" fill="#3F3D56"/>
<path opacity="0.2" d="M472.21 361.312C473.894 357.839 473.291 353.885 470.862 352.48C468.433 351.075 465.099 352.752 463.414 356.224C461.73 359.697 462.333 363.652 464.762 365.057C467.191 366.461 470.525 364.785 472.21 361.312Z" fill="#3F3D56"/>
<path opacity="0.2" d="M475.935 353.625C477.62 350.152 477.016 346.198 474.587 344.793C472.159 343.388 468.824 345.064 467.14 348.537C465.455 352.01 466.059 355.964 468.487 357.369C470.916 358.774 474.251 357.098 475.935 353.625Z" fill="#3F3D56"/>
<path opacity="0.2" d="M479.667 345.935C481.351 342.462 480.748 338.508 478.319 337.103C475.89 335.698 472.556 337.375 470.872 340.848C469.187 344.32 469.791 348.275 472.219 349.68C474.648 351.085 477.982 349.408 479.667 345.935Z" fill="#3F3D56"/>
<path opacity="0.2" d="M483.395 338.243C485.079 334.771 484.476 330.816 482.047 329.411C479.618 328.006 476.284 329.683 474.599 333.156C472.915 336.629 473.518 340.583 475.947 341.988C478.376 343.393 481.71 341.716 483.395 338.243Z" fill="#3F3D56"/>
<path opacity="0.2" d="M488.022 273.523C487.827 272.348 487.706 271.16 487.659 269.968L500.217 274.58L487.659 267.469C487.842 263.915 488.688 260.439 490.146 257.255C491.605 254.071 493.643 251.247 496.138 248.955L508.281 268.185L498.835 246.817C501.611 244.924 504.713 243.674 507.95 243.147C511.187 242.619 514.488 242.825 517.649 243.751C520.81 244.677 523.762 246.303 526.323 248.529C528.883 250.754 530.997 253.532 532.532 256.688C534.067 259.844 534.992 263.311 535.247 266.874C535.503 270.437 535.084 274.019 534.017 277.398C532.95 280.776 531.258 283.879 529.046 286.513C526.834 289.147 524.15 291.255 521.159 292.707C521.467 294.549 521.592 296.423 521.532 298.294L502.393 298.132L521.239 301.52C520.602 305.796 519 309.831 516.577 313.261C514.154 316.691 510.986 319.408 507.36 321.166C508.16 325.975 507.704 330.934 506.045 335.474C504.386 340.014 501.591 343.953 497.978 346.839C494.366 349.726 490.083 351.444 485.619 351.798C481.154 352.151 476.689 351.125 472.733 348.838C468.777 346.55 465.491 343.093 463.25 338.861C461.009 334.63 459.903 329.795 460.059 324.91C460.216 320.025 461.628 315.286 464.134 311.236C466.64 307.186 470.14 303.988 474.232 302.007C473.282 296.263 474.126 290.337 476.628 285.179C479.13 280.022 483.146 275.931 488.031 273.564L488.022 273.523Z" fill="#3B9CBE"/>
<path opacity="0.1" d="M518.76 309.524C516.265 314.692 512.245 318.787 507.351 321.145C508.151 325.955 507.695 330.913 506.036 335.454C504.377 339.994 501.581 343.932 497.969 346.819C494.357 349.706 490.074 351.424 485.609 351.777C481.145 352.131 476.679 351.105 472.724 348.817C468.768 346.53 465.482 343.072 463.24 338.841C460.999 334.61 459.894 329.775 460.05 324.89C460.206 320.004 461.618 315.266 464.125 311.215C466.631 307.165 470.13 303.967 474.223 301.987C473.297 296.435 520.015 306.944 518.76 309.524Z" fill="black"/>
</g>
<g opacity="0.2">
<path opacity="0.2" d="M453.522 215.331C453.232 216.146 452.882 216.935 452.475 217.688C447.79 214.959 443.045 212.307 438.239 209.734C438.304 209.515 438.378 209.287 438.457 209.069C439.237 206.753 440.57 204.709 442.318 203.146C444.583 201.165 447.313 200.419 449.759 201.429C452.205 202.44 453.768 204.985 454.257 208.088C454.609 210.531 454.356 213.032 453.522 215.331Z" fill="#3F3D56"/>
<path opacity="0.2" d="M458.119 202.185C460.192 196.236 458.5 190.012 454.34 188.283C450.18 186.553 445.127 189.974 443.053 195.922C440.98 201.87 442.671 208.095 446.832 209.824C450.992 211.554 456.045 208.133 458.119 202.185Z" fill="#3F3D56"/>
<path opacity="0.2" d="M462.71 189.024C464.784 183.075 463.092 176.851 458.932 175.121C454.772 173.392 449.718 176.812 447.645 182.761C445.571 188.709 447.263 194.933 451.423 196.663C455.584 198.392 460.637 194.972 462.71 189.024Z" fill="#3F3D56"/>
<path opacity="0.2" d="M467.295 175.855C469.368 169.907 467.676 163.683 463.516 161.953C459.356 160.224 454.303 163.644 452.229 169.593C450.156 175.541 451.848 181.765 456.008 183.495C460.168 185.224 465.221 181.804 467.295 175.855Z" fill="#3F3D56"/>
<path opacity="0.2" d="M471.887 162.699C473.96 156.751 472.268 150.526 468.108 148.797C463.948 147.067 458.895 150.488 456.821 156.436C454.748 162.385 456.439 168.609 460.6 170.338C464.76 172.068 469.813 168.648 471.887 162.699Z" fill="#3F3D56"/>
<path opacity="0.2" d="M467.53 57.7501C467 55.8905 466.588 53.9931 466.298 52.0716L487.329 56.7495L465.86 48.0235C465.508 42.2935 466.23 36.5454 467.982 31.1307C469.734 25.716 472.48 20.7487 476.051 16.5327L499.1 44.7017L480.032 12.4338C484.147 8.80417 488.901 6.13691 494 4.59757C499.098 3.05823 504.432 2.67965 509.67 3.48532C514.908 4.291 519.938 6.26374 524.449 9.28111C528.96 12.2985 532.854 16.2961 535.892 21.0258C538.929 25.7556 541.043 31.1165 542.104 36.776C543.165 42.4354 543.149 48.2726 542.058 53.9252C540.967 59.5778 538.824 64.9252 535.762 69.6355C532.7 74.3458 528.784 78.3186 524.257 81.3073C525.083 84.2004 525.622 87.182 525.866 90.2009L495.091 94.1017L525.987 95.4476C525.745 102.457 523.907 109.29 520.638 115.329C517.37 121.368 512.774 126.421 507.267 130.032C509.424 137.582 509.592 145.643 507.752 153.293C505.912 160.943 502.139 167.874 496.864 173.293C491.588 178.712 485.023 182.401 477.919 183.938C470.814 185.475 463.457 184.799 456.688 181.986C449.919 179.173 444.011 174.338 439.64 168.032C435.268 161.726 432.609 154.204 431.966 146.326C431.323 138.447 432.723 130.531 436.005 123.48C439.287 116.429 444.319 110.529 450.526 106.454C447.944 97.429 448.215 87.7177 451.295 78.8808C454.376 70.0438 460.087 62.5945 467.511 57.7298L467.53 57.7501Z" fill="#3B9CBE"/>
<path opacity="0.1" d="M523.48 108.897C520.411 117.736 514.698 125.183 507.267 130.032C509.424 137.582 509.592 145.643 507.752 153.293C505.912 160.943 502.139 167.874 496.864 173.293C491.588 178.712 485.023 182.401 477.919 183.938C470.814 185.475 463.457 184.799 456.688 181.986C449.919 179.173 444.011 174.338 439.64 168.032C435.268 161.726 432.609 154.204 431.966 146.326C431.323 138.447 432.723 130.531 436.005 123.48C439.287 116.429 444.319 110.529 450.526 106.454C448.048 97.7586 525.024 104.478 523.48 108.897Z" fill="black"/>
</g>
<g opacity="0.2">
<path opacity="0.2" d="M82.9625 259.119C83.1979 260.127 83.509 261.112 83.8926 262.064C89.7838 259.599 95.7416 257.229 101.766 254.954C101.715 254.684 101.664 254.405 101.599 254.131C100.992 251.271 99.696 248.641 97.8453 246.512C95.4361 243.81 92.3154 242.489 89.3156 243.292C86.3158 244.094 84.1066 246.847 83.1066 250.403C82.3441 253.241 82.2943 256.252 82.9625 259.119Z" fill="#3F3D56"/>
<path opacity="0.2" d="M91.6369 253.662C96.7798 252.291 99.6164 245.219 97.9728 237.867C96.3291 230.515 90.8275 225.666 85.6847 227.037C80.5418 228.408 77.7052 235.48 79.3488 242.833C80.9925 250.185 86.4941 255.034 91.6369 253.662Z" fill="#3F3D56"/>
<path opacity="0.2" d="M87.9982 237.398C93.1411 236.027 95.9778 228.955 94.3341 221.603C92.6904 214.251 87.1889 209.402 82.046 210.773C76.9031 212.144 74.0665 219.216 75.7102 226.568C77.3538 233.921 82.8554 238.769 87.9982 237.398Z" fill="#3F3D56"/>
<path opacity="0.2" d="M84.3641 221.128C89.5069 219.757 92.3436 212.685 90.6999 205.332C89.0562 197.98 83.5547 193.131 78.4118 194.503C73.269 195.874 70.4323 202.946 72.076 210.298C73.7196 217.65 79.2212 222.499 84.3641 221.128Z" fill="#3F3D56"/>
<path opacity="0.2" d="M80.7243 204.854C85.8671 203.482 88.7038 196.411 87.0601 189.058C85.4165 181.706 79.9149 176.857 74.772 178.228C69.6292 179.6 66.7925 186.672 68.4362 194.024C70.0799 201.376 75.5814 206.225 80.7243 204.854Z" fill="#3F3D56"/>
<path opacity="0.2" d="M87.7073 70.9203C88.5862 68.8124 89.329 66.64 89.9305 64.419L64.4855 66.5421L90.9955 59.7055C92.1882 52.9979 92.114 46.095 90.7777 39.4197C89.4413 32.7445 86.8709 26.4376 83.2239 20.8855L52.2118 50.4665L79.08 15.4609C74.7168 10.499 69.4654 6.57059 63.6524 3.92019C57.8393 1.26979 51.5891 -0.0459292 45.2905 0.0548843C38.9919 0.155698 32.7796 1.67089 27.0402 4.50619C21.3008 7.3415 16.1571 11.4363 11.929 16.5357C7.70084 21.6352 4.47882 27.6303 2.46334 34.148C0.447855 40.6658 -0.317964 47.5667 0.213523 54.4216C0.74501 61.2764 2.56243 67.9385 5.55273 73.9933C8.54302 80.0482 12.6422 85.3662 17.5953 89.6167C16.2291 92.899 15.1891 96.3318 14.4931 99.8563L50.2817 109.41L13.642 106.022C12.9817 114.331 14.2275 122.688 17.2669 130.338C20.3063 137.988 25.0435 144.691 31.0503 149.84C27.4828 158.404 26.1938 167.891 27.3306 177.217C28.4673 186.543 31.984 195.332 37.4786 202.578C42.9732 209.825 50.224 215.237 58.402 218.195C66.58 221.153 75.3553 221.539 83.7246 219.308C92.0939 217.077 99.7194 212.319 105.73 205.579C111.74 198.838 115.892 190.387 117.711 181.19C119.531 171.994 118.944 162.425 116.019 153.575C113.093 144.726 107.946 136.955 101.167 131.149C105.429 120.912 106.417 109.408 103.971 98.4847C101.525 87.5613 95.7868 77.8532 87.6794 70.9203H87.7073Z" fill="#3B9CBE"/>
<path opacity="0.1" d="M14.7712 122.266C17.1977 133.197 22.9337 142.914 31.0493 149.84C27.4818 158.404 26.1928 167.891 27.3296 177.217C28.4664 186.544 31.9831 195.332 37.4777 202.578C42.9723 209.825 50.223 215.237 58.401 218.195C66.5791 221.153 75.3543 221.539 83.7236 219.308C92.0929 217.077 99.7185 212.319 105.729 205.579C111.739 198.838 115.891 190.387 117.71 181.19C119.53 171.994 118.943 162.425 116.018 153.576C113.092 144.726 107.945 136.955 101.166 131.149C105.296 121.27 13.5573 116.826 14.7712 122.266Z" fill="black"/>
</g>
<path d="M491.273 57.7551H40.7231C40.195 57.7558 39.6723 57.8701 39.1847 58.0916C38.6971 58.3131 38.2542 58.6373 37.8814 59.0458C37.5087 59.4544 37.2133 59.9391 37.0122 60.4724C36.8111 61.0056 36.7082 61.577 36.7094 62.1537V363.287C36.7076 364.45 36.9155 365.601 37.3212 366.676C37.7268 367.751 38.3224 368.728 39.0739 369.552C39.8254 370.375 40.718 371.029 41.7008 371.476C42.6836 371.922 43.7374 372.153 44.802 372.155H487.194C488.259 372.153 489.312 371.922 490.295 371.476C491.278 371.029 492.171 370.375 492.922 369.552C493.674 368.728 494.269 367.751 494.675 366.676C495.081 365.601 495.288 364.45 495.287 363.287V62.1537C495.288 60.9893 494.866 59.8721 494.113 59.0473C493.361 58.2226 492.339 57.7578 491.273 57.7551Z" fill="url(#paint0_linear)"/>
<path d="M493.463 76.4515V361.514C493.462 363.838 492.617 366.065 491.112 367.708C489.608 369.351 487.568 370.275 485.441 370.276H46.6344C44.5054 370.276 42.4636 369.352 40.9582 367.708C39.4527 366.064 38.607 363.834 38.607 361.509V76.4515H493.463Z" fill="white"/>
<path d="M493.463 63.7841V76.4515H38.607V63.7841C38.607 62.631 39.0264 61.5251 39.773 60.7098C40.5197 59.8944 41.5323 59.4363 42.5882 59.4363H489.482C490.538 59.4363 491.551 59.8944 492.297 60.7098C493.044 61.5251 493.463 62.631 493.463 63.7841Z" fill="#EDEDF4"/>
<path opacity="0.8" d="M45.8159 69.8487C46.8433 69.8487 47.6762 68.9391 47.6762 67.817C47.6762 66.6949 46.8433 65.7853 45.8159 65.7853C44.7884 65.7853 43.9555 66.6949 43.9555 67.817C43.9555 68.9391 44.7884 69.8487 45.8159 69.8487Z" fill="#FA5959"/>
<path opacity="0.8" d="M50.9318 69.8487C51.9593 69.8487 52.7922 68.9391 52.7922 67.817C52.7922 66.6949 51.9593 65.7853 50.9318 65.7853C49.9044 65.7853 49.0715 66.6949 49.0715 67.817C49.0715 68.9391 49.9044 69.8487 50.9318 69.8487Z" fill="#FED253"/>
<path opacity="0.8" d="M56.0478 69.8487C57.0752 69.8487 57.9081 68.9391 57.9081 67.817C57.9081 66.6949 57.0752 65.7853 56.0478 65.7853C55.0203 65.7853 54.1874 66.6949 54.1874 67.817C54.1874 68.9391 55.0203 69.8487 56.0478 69.8487Z" fill="#8CCF4D"/>
<path d="M292.508 52.1731V50.1415H289.717V52.1731H292.508Z" fill="url(#paint1_linear)"/>
<path d="M186.933 101.436H143.215V106.515H186.933V101.436Z" fill="#EDEDF4"/>
<path d="M388.781 116.166H143.215V121.245H388.781V116.166Z" fill="#EDEDF4"/>
<path d="M388.781 130.895H143.215V135.974H388.781V130.895Z" fill="#EDEDF4"/>
<path d="M388.781 145.625H143.215V150.704H388.781V145.625Z" fill="#EDEDF4"/>
<path d="M388.781 160.354H143.215V165.433H388.781V160.354Z" fill="#EDEDF4"/>
<path d="M341.728 188.452H190.11V316.447H341.728V188.452Z" fill="#EDEDF4"/>
<path d="M292.522 228.105C292.327 228.105 292.131 228.136 291.931 228.141C291.997 227.845 292.019 227.54 291.996 227.237C291.939 225.956 291.621 224.705 291.066 223.575C290.724 222.909 290.339 222.27 289.913 221.665C288.648 219.755 287.476 217.805 286.085 216.002C285.482 215.301 284.985 214.5 284.611 213.63C284.47 213.16 284.303 212.7 284.109 212.253C283.84 211.797 283.461 211.43 283.014 211.192C282.567 210.955 282.069 210.856 281.574 210.907C280.579 211.035 279.663 211.564 279.007 212.39C278.616 212.847 278.295 213.553 278.62 214.071C278.946 214.59 279.653 214.656 279.695 215.224C279.695 215.529 279.695 216.027 279.411 216.123C278.907 216.269 278.427 216.498 277.988 216.804C277.771 216.961 277.59 217.172 277.46 217.419C277.33 217.665 277.254 217.942 277.239 218.226C278.044 218.358 278.718 217.622 279.448 217.21C280.375 216.779 281.416 216.737 282.369 217.094C282.735 217.2 283.078 217.389 283.374 217.647C283.635 217.927 283.854 218.249 284.025 218.602C284.921 220.016 285.474 221.655 285.634 223.366L286.043 226.221C285.438 226.274 284.835 226.362 284.239 226.485C282.632 226.744 280.994 226.622 279.434 226.129C277.807 225.621 276.179 224.697 274.5 225.114C273.714 225.301 272.998 225.779 272.202 225.916C271.581 225.982 270.954 225.946 270.342 225.809L269.063 225.586C269.021 225.469 268.989 225.347 268.956 225.225C268.691 224.207 268.569 223.15 268.593 222.091C269.427 222.043 270.237 221.771 270.953 221.302C271.669 220.832 272.269 220.178 272.7 219.397C273.132 218.616 273.381 217.732 273.427 216.821C273.473 215.91 273.315 215.001 272.965 214.173C273.655 213.751 274.226 213.131 274.616 212.38L274.291 212.314L274.597 211.806C274.525 211.758 274.464 211.692 274.419 211.614C274.374 211.536 274.346 211.447 274.337 211.355C274.329 211.263 274.34 211.17 274.37 211.084C274.399 210.997 274.447 210.919 274.509 210.856C274.238 210.703 273.935 210.629 273.63 210.643C273.728 210.445 273.57 210.201 273.379 210.135C273.18 210.091 272.977 210.077 272.774 210.094C272.478 210.07 272.186 209.996 271.909 209.876C269.923 209.129 267.77 208.474 265.747 209.099C264.855 209.403 264.022 209.881 263.287 210.511C262.57 210.95 262.035 211.672 261.791 212.529C261.547 213.386 261.613 214.312 261.975 215.118C262.282 215.95 262.502 216.817 262.631 217.703C262.659 218.53 262.573 219.357 262.375 220.156C262.818 220.304 263.27 220.414 263.728 220.486C263.47 221.577 263.013 222.6 262.384 223.493C262.096 223.889 261.786 224.263 261.454 224.616H261.398C260.476 224.804 259.544 224.93 258.608 224.992C257.622 224.992 256.654 224.585 255.673 224.661C255.092 224.733 254.519 224.874 253.966 225.083C251.413 225.9 248.761 226.287 246.102 226.231L245.781 226.267L246.078 224.194C246.238 222.483 246.792 220.844 247.687 219.43C247.858 219.077 248.078 218.755 248.339 218.475C248.636 218.216 248.98 218.028 249.348 217.921C250.3 217.565 251.339 217.607 252.264 218.038C252.994 218.429 253.659 219.166 254.478 219.054C254.461 218.77 254.384 218.493 254.254 218.247C254.123 218 253.942 217.79 253.724 217.632C253.285 217.326 252.805 217.097 252.301 216.951C252.031 216.855 251.994 216.357 252.017 216.052C252.059 215.483 252.799 215.362 253.092 214.894C253.385 214.427 253.092 213.675 252.706 213.213C252.048 212.389 251.133 211.862 250.138 211.735C249.644 211.684 249.147 211.782 248.7 212.02C248.254 212.257 247.876 212.624 247.608 213.081C247.411 213.527 247.241 213.987 247.101 214.457C246.728 215.328 246.23 216.129 245.627 216.829C244.232 218.633 243.064 220.583 241.799 222.493C241.376 223.099 240.991 223.735 240.646 224.397C240.094 225.531 239.776 226.782 239.716 228.065C239.693 228.369 239.715 228.676 239.781 228.974C239.75 229.045 239.732 229.123 239.73 229.202C239.744 229.341 239.784 229.475 239.846 229.598C239.908 229.72 239.992 229.827 240.093 229.913C240.804 230.696 241.553 231.503 242.511 231.838C243.107 231.992 243.711 232.106 244.32 232.179C245.79 232.468 247.143 233.398 248.636 233.393C249.664 233.393 250.678 232.946 251.692 233.103C253.087 233.311 254.092 234.551 254.947 235.754C255.674 236.694 256.22 237.784 256.552 238.959C256.882 240.376 256.678 241.971 257.371 243.221C257.545 243.476 257.681 243.761 257.771 244.064C257.785 244.543 257.687 245.019 257.487 245.445C256.901 247.411 258.185 249.509 258.05 251.54C257.985 252.531 257.585 253.465 257.543 254.456C257.473 255.731 257.947 257.158 257.296 258.22C257.692 257.996 258.091 257.798 258.501 257.62C256.547 263.873 254.78 270.318 254.915 276.891C255.017 281.152 255.845 285.845 253.603 289.345C253.285 289.762 253.032 290.234 252.855 290.741C252.678 291.427 252.855 292.153 252.971 292.854C253.385 295.902 251.878 298.904 251.776 301.997C251.764 302.95 251.82 303.903 251.943 304.846L252.492 309.997C251.939 310.128 251.424 310.407 250.994 310.809C250.418 311.317 249.911 312.15 250.18 312.912C250.399 313.527 251.041 313.821 251.631 313.974C252.237 314.048 252.816 314.287 253.315 314.669C253.475 314.862 253.644 315.045 253.822 315.218C254.166 315.421 254.56 315.501 254.947 315.446C255.659 315.416 256.343 315.35 257.068 315.243C257.219 315.237 257.365 315.186 257.492 315.096C257.576 314.993 257.641 314.873 257.682 314.742C257.723 314.611 257.739 314.472 257.729 314.334C257.781 313.561 257.751 312.784 257.64 312.018C257.612 311.871 257.575 311.729 257.538 311.581C257.782 310.928 257.956 310.247 258.054 309.55C258.198 308.534 258.222 307.472 258.282 306.431C258.422 303.78 258.747 301.149 259.119 298.518L259.584 295.135C259.729 294.023 259.877 292.91 260.05 291.798C260.912 285.773 262.253 279.842 264.059 274.072C264.454 272.837 265.128 271.39 266.324 271.354L267.035 272.878C267.965 274.788 268.533 276.906 269.24 278.912C270.17 281.548 269.854 284.626 271.1 287.105C271.305 287.516 271.565 287.907 271.719 288.339C271.939 289.004 272.068 289.7 272.1 290.406L272.923 299.549C273.295 303.658 273.695 307.879 275.383 311.571C275.489 311.809 275.614 312.037 275.756 312.252C275.704 312.866 275.696 313.485 275.732 314.101C275.706 314.209 275.704 314.323 275.725 314.434C275.746 314.544 275.791 314.647 275.855 314.735C275.919 314.823 276.001 314.894 276.094 314.942C276.187 314.989 276.29 315.013 276.393 315.01C277.095 315.111 277.788 315.177 278.509 315.208C278.897 315.263 279.291 315.183 279.634 314.979C279.816 314.809 279.987 314.626 280.146 314.431C280.643 314.048 281.221 313.809 281.825 313.735C282.416 313.588 283.057 313.293 283.276 312.673C283.55 311.911 283.039 311.083 282.462 310.57C281.995 310.124 281.42 309.834 280.806 309.732C280.554 309.748 280.3 309.726 280.053 309.666C280.11 309.332 280.129 308.99 280.109 308.651C280.049 308.251 280.034 307.845 280.062 307.442C280.157 307.034 280.285 306.636 280.444 306.253C280.978 304.455 279.839 302.627 279.439 300.788C278.904 298.34 279.699 295.775 279.555 293.261C279.332 289.314 276.811 285.611 277.481 281.726C278.016 278.617 277.56 275.423 277.053 272.309L275.193 260.724C275.062 259.783 274.836 258.862 274.518 257.976C274.864 257.91 275.203 257.812 275.532 257.681C275.997 256.442 275.918 255.076 275.779 253.745C275.639 252.414 275.314 251.114 275.151 249.793C275.01 248.731 274.929 247.661 274.909 246.588C274.858 245.53 274.927 244.469 275.114 243.429C275.328 242.516 275.619 241.627 275.983 240.773C276.883 238.307 277.973 235.928 279.239 233.662C281.151 233.499 283.002 233.321 284.908 233.154C285.366 233.131 285.82 233.065 286.267 232.956C286.836 232.742 287.415 232.56 288.001 232.412C288.22 232.4 288.436 232.354 288.643 232.275C289.062 232.067 289.317 231.483 289.778 231.463C289.951 231.488 290.126 231.488 290.299 231.463C290.503 231.391 290.606 231.148 290.764 230.955C291.052 230.604 291.522 230.533 291.899 230.304C292.222 230.075 292.461 229.73 292.575 229.328C292.689 228.926 292.67 228.493 292.522 228.105Z" fill="url(#paint2_linear)"/>
<path d="M268.328 222.549C271.154 222.549 273.444 220.047 273.444 216.962C273.444 213.876 271.154 211.374 268.328 211.374C265.503 211.374 263.212 213.876 263.212 216.962C263.212 220.047 265.503 222.549 268.328 222.549Z" fill="#A1616A"/>
<path d="M262.421 223.915C261.899 224.617 261.315 225.262 260.677 225.84C263.683 227.797 267.255 228.439 270.677 227.638C270.551 227.257 270.095 227.201 269.775 227.008C269.358 226.685 269.074 226.196 268.984 225.647C268.639 224.308 268.538 222.909 268.686 221.528C268.749 221.193 268.749 220.847 268.686 220.512C268.508 220.009 268.165 219.596 267.723 219.354C266.999 218.86 266.217 218.476 265.398 218.211C264.552 217.937 264.068 217.81 264.035 218.887C264.001 220.707 263.436 222.469 262.421 223.915Z" fill="#A1616A"/>
<path d="M286.16 227.43L285.639 223.823C285.554 223.098 285.416 222.381 285.225 221.68C284.913 220.77 284.514 219.898 284.034 219.08C283.863 218.728 283.644 218.408 283.383 218.13C283.087 217.871 282.745 217.683 282.378 217.576C281.428 217.221 280.39 217.264 279.467 217.698C278.737 218.084 278.072 218.815 277.258 218.688C277.273 218.404 277.349 218.128 277.48 217.882C277.611 217.636 277.793 217.427 278.011 217.271C278.441 216.966 278.912 216.737 279.406 216.591C279.672 216.499 279.713 216.002 279.69 215.697C279.648 215.133 278.909 215.011 278.616 214.549C278.323 214.087 278.616 213.335 278.997 212.873C279.654 212.052 280.568 211.528 281.56 211.405C282.053 211.351 282.551 211.447 282.997 211.683C283.444 211.919 283.822 212.285 284.09 212.741C284.288 213.185 284.457 213.643 284.597 214.112C284.97 214.979 285.466 215.776 286.067 216.474C287.462 218.267 288.629 220.207 289.89 222.107C290.311 222.712 290.697 223.347 291.043 224.006C291.598 225.131 291.915 226.377 291.973 227.653C292.015 228.046 291.962 228.443 291.82 228.806C291.676 229.071 291.472 229.29 291.227 229.443C290.983 229.596 290.706 229.678 290.424 229.68C289.853 229.664 289.288 229.541 288.755 229.314L286.727 228.567C286.48 228.508 286.254 228.372 286.076 228.176C286.002 228.063 285.97 227.923 285.985 227.785C286.001 227.647 286.063 227.52 286.16 227.43Z" fill="#A1616A"/>
<path d="M245.627 228.227L246.143 224.621C246.231 223.896 246.371 223.179 246.562 222.478C246.872 221.566 247.271 220.695 247.753 219.877C247.919 219.525 248.137 219.206 248.399 218.932C248.694 218.671 249.036 218.482 249.404 218.379C250.355 218.022 251.394 218.064 252.32 218.495C253.05 218.882 253.715 219.613 254.529 219.486C254.513 219.202 254.437 218.926 254.306 218.68C254.175 218.434 253.993 218.225 253.776 218.069C253.345 217.765 252.875 217.535 252.38 217.388C252.115 217.297 252.073 216.799 252.097 216.494C252.138 215.931 252.873 215.809 253.171 215.346C253.469 214.884 253.171 214.132 252.785 213.675C252.129 212.852 251.215 212.327 250.222 212.202C249.729 212.149 249.231 212.246 248.785 212.481C248.339 212.717 247.96 213.083 247.692 213.538C247.496 213.982 247.328 214.44 247.19 214.91C246.815 215.775 246.319 216.572 245.72 217.271C244.325 219.064 243.158 221.005 241.892 222.904C241.472 223.509 241.088 224.144 240.744 224.804C240.191 225.93 239.874 227.175 239.814 228.451C239.774 228.845 239.828 229.244 239.972 229.609C240.119 229.876 240.327 230.096 240.576 230.248C240.824 230.401 241.105 230.479 241.39 230.477C241.961 230.464 242.524 230.34 243.055 230.112L245.088 229.385C245.333 229.327 245.558 229.191 245.734 228.994C245.811 228.876 245.842 228.73 245.822 228.587C245.802 228.444 245.732 228.315 245.627 228.227Z" fill="#A1616A"/>
<path d="M282.462 310.55C283.039 311.058 283.546 311.886 283.276 312.643C283.053 313.257 282.416 313.547 281.825 313.699C281.222 313.774 280.645 314.012 280.146 314.39C279.988 314.577 279.819 314.752 279.639 314.913C279.296 315.119 278.901 315.199 278.514 315.142C277.807 315.111 277.118 315.045 276.397 314.944C276.247 314.937 276.101 314.886 275.974 314.796C275.889 314.695 275.824 314.575 275.784 314.445C275.744 314.315 275.73 314.177 275.742 314.04C275.685 313.27 275.714 312.496 275.825 311.734C275.943 310.968 276.303 310.272 276.844 309.768C277.383 309.311 279.02 307.955 279.634 308.823C279.797 309.057 279.732 309.377 279.96 309.57C280.188 309.763 280.546 309.656 280.806 309.692C281.422 309.799 281.997 310.097 282.462 310.55Z" fill="#3F3D56"/>
<path d="M251.036 310.814C250.459 311.322 249.952 312.15 250.222 312.907C250.441 313.521 251.078 313.816 251.669 313.963C252.272 314.037 252.849 314.275 253.348 314.654C253.506 314.85 253.677 315.033 253.859 315.203C254.202 315.405 254.594 315.485 254.98 315.431C255.687 315.401 256.375 315.335 257.096 315.228C257.247 315.222 257.393 315.171 257.519 315.081C257.605 314.98 257.671 314.86 257.712 314.73C257.753 314.6 257.768 314.461 257.757 314.324C257.809 313.556 257.779 312.784 257.668 312.023C257.554 311.255 257.193 310.556 256.65 310.052C256.115 309.595 254.478 308.239 253.859 309.108C253.696 309.341 253.762 309.666 253.529 309.854C253.296 310.042 252.948 309.941 252.683 309.976C252.072 310.081 251.502 310.371 251.036 310.814Z" fill="#3F3D56"/>
<path d="M258.943 256.62C256.845 263.222 254.808 270.054 254.966 277.058C255.068 281.299 255.896 285.972 253.659 289.451C253.34 289.866 253.087 290.337 252.91 290.843C252.734 291.524 252.91 292.245 253.022 292.946C253.441 295.993 251.938 298.97 251.831 302.048C251.82 302.996 251.876 303.943 251.999 304.882L252.58 310.306C252.776 312.165 254.971 312.927 256.664 313.186C257.46 312.149 257.959 310.879 258.101 309.534C258.245 308.518 258.268 307.467 258.324 306.436C258.468 303.795 258.817 301.174 259.161 298.558L259.626 295.191C259.775 294.083 259.919 292.976 260.091 291.869C260.96 285.89 262.303 280.005 264.105 274.28C264.5 273.046 265.175 271.608 266.365 271.573L267.077 273.066C268.007 274.96 268.57 277.073 269.277 279.069C270.207 281.695 269.886 284.753 271.137 287.227C271.342 287.633 271.602 288.024 271.751 288.451C271.969 289.104 272.098 289.788 272.133 290.482L272.956 299.564C273.328 303.653 273.723 307.853 275.411 311.525C275.579 311.964 275.846 312.349 276.188 312.643C276.876 313.151 277.839 312.892 278.514 312.363C279.047 311.935 279.474 311.367 279.755 310.713C280.036 310.058 280.162 309.337 280.123 308.615C280.068 308.217 280.052 307.813 280.076 307.411C280.175 307.006 280.302 306.611 280.458 306.228C280.997 304.44 279.858 302.622 279.453 300.793C278.918 298.355 279.713 295.805 279.574 293.301C279.351 289.37 276.835 285.683 277.5 281.817C278.035 278.724 277.579 275.545 277.076 272.446L275.193 260.917C274.895 259.098 274.449 257.046 272.965 256.157C272.115 255.742 271.182 255.567 270.254 255.649C266.407 255.649 262.733 256.234 258.943 256.62Z" fill="#3F3D56"/>
<path d="M292.522 228.517C291.168 228.666 289.804 228.357 288.615 227.633C288.164 227.305 287.682 227.029 287.178 226.81C286.248 226.48 285.225 226.769 284.248 226.927C282.645 227.18 281.01 227.059 279.453 226.571C277.825 226.063 276.197 225.144 274.523 225.555C273.737 225.743 273.026 226.216 272.23 226.353C271.609 226.422 270.981 226.386 270.37 226.246L265.068 225.342C263.871 225.081 262.649 224.985 261.431 225.058C260.508 225.245 259.577 225.373 258.64 225.439C257.659 225.439 256.692 225.032 255.71 225.103C255.13 225.176 254.56 225.317 254.008 225.525C251.461 226.338 248.815 226.723 246.162 226.668C244.046 226.819 242.007 227.591 240.26 228.903C240.139 228.975 240.035 229.076 239.955 229.199C239.874 229.321 239.82 229.461 239.795 229.609C239.81 229.746 239.851 229.879 239.914 230C239.977 230.12 240.061 230.225 240.162 230.31C240.869 231.092 241.618 231.894 242.576 232.23C243.171 232.382 243.773 232.494 244.381 232.565C245.846 232.859 247.199 233.779 248.687 233.779C249.715 233.779 250.725 233.332 251.738 233.489C253.134 233.697 254.134 234.927 254.994 236.125C255.717 237.062 256.263 238.146 256.599 239.315C256.924 240.727 256.72 242.312 257.413 243.556C257.586 243.81 257.721 244.093 257.812 244.394C257.827 244.872 257.73 245.346 257.529 245.771C256.943 247.726 258.226 249.793 258.092 251.866C258.026 252.846 257.626 253.78 257.585 254.761C257.519 256.036 257.989 257.453 257.338 258.509C259.851 257.127 262.642 256.461 265.454 256.574C265.921 256.586 266.388 256.634 266.849 256.716C267.746 256.916 268.629 257.184 269.491 257.519C271.435 258.194 273.574 258.677 275.49 257.905C275.956 256.67 275.876 255.309 275.732 253.989C275.588 252.668 275.29 251.368 275.109 250.052C274.968 248.996 274.887 247.93 274.867 246.863C274.817 245.809 274.885 244.753 275.072 243.719C275.285 242.81 275.576 241.926 275.942 241.077C276.839 238.61 277.928 236.231 279.197 233.967C281.104 233.799 282.95 233.621 284.857 233.459C285.313 233.431 285.765 233.365 286.211 233.261C286.779 233.049 287.356 232.869 287.941 232.722C288.16 232.709 288.376 232.661 288.583 232.58C289.001 232.372 289.262 231.793 289.718 231.777C289.891 231.8 290.065 231.8 290.238 231.777C290.443 231.711 290.541 231.463 290.704 231.27C290.992 230.919 291.462 230.848 291.838 230.624C292.155 230.41 292.395 230.085 292.519 229.702C292.643 229.319 292.644 228.901 292.522 228.517Z" fill="#3B9CBE"/>
<path d="M269.216 218.978C269.365 219.106 269.546 219.181 269.734 219.193C269.923 219.206 270.11 219.156 270.272 219.049C270.475 218.84 270.612 218.566 270.663 218.267C270.83 217.632 270.965 216.988 271.067 216.337C271.094 216.053 271.174 215.779 271.3 215.529C271.64 214.96 272.374 214.93 272.946 214.671C273.654 214.253 274.239 213.627 274.635 212.863L274.314 212.792L274.616 212.284C274.544 212.236 274.484 212.171 274.439 212.093C274.394 212.016 274.367 211.928 274.359 211.837C274.35 211.746 274.362 211.653 274.392 211.568C274.422 211.482 274.47 211.406 274.532 211.344C274.261 211.186 273.956 211.111 273.649 211.126C273.746 210.933 273.588 210.689 273.398 210.618C273.2 210.573 272.998 210.561 272.798 210.582C272.501 210.555 272.209 210.48 271.933 210.359C269.951 209.617 267.803 208.962 265.784 209.587C264.892 209.888 264.058 210.364 263.324 210.994C262.613 211.43 262.082 212.146 261.839 212.996C261.596 213.845 261.66 214.765 262.017 215.565C262.322 216.39 262.54 217.251 262.668 218.13C262.698 218.955 262.613 219.78 262.417 220.578C262.968 220.771 263.537 220.892 264.114 220.939C264.695 220.987 265.273 220.807 265.742 220.431C266.207 219.994 266.468 219.318 266.849 218.77C266.996 218.528 267.195 218.33 267.43 218.195C267.665 218.06 267.928 217.992 268.193 217.998C268.709 218.084 268.802 218.658 269.216 218.978Z" fill="#3F3D56"/>
<path d="M255.766 314.913H250.32C250.159 314.949 250.014 315.044 249.91 315.183C249.805 315.322 249.748 315.496 249.748 315.675C249.748 315.855 249.805 316.029 249.91 316.167C250.014 316.306 250.159 316.402 250.32 316.437H251.408V326.529H232.772C232.729 326.45 232.669 326.384 232.596 326.336C232.524 326.288 232.442 326.26 232.358 326.255H226.917C226.755 326.29 226.61 326.386 226.506 326.524C226.402 326.663 226.345 326.837 226.345 327.017C226.345 327.196 226.402 327.37 226.506 327.509C226.61 327.648 226.755 327.743 226.917 327.779H228.005V338.145H210.011C209.995 338.004 209.935 337.873 209.842 337.774C209.75 337.674 209.629 337.612 209.499 337.597H204.062C203.897 337.626 203.746 337.719 203.638 337.859C203.529 337.998 203.47 338.176 203.47 338.359C203.47 338.542 203.529 338.719 203.638 338.858C203.746 338.998 203.897 339.091 204.062 339.121H204.606V349.787H186.314C186.246 349.745 186.169 349.722 186.091 349.721H180.65C180.488 349.756 180.344 349.851 180.239 349.99C180.135 350.129 180.078 350.303 180.078 350.483C180.078 350.662 180.135 350.836 180.239 350.975C180.344 351.114 180.488 351.209 180.65 351.245H181.194V361.403H163.134C163.095 361.303 163.031 361.217 162.948 361.156C162.866 361.094 162.769 361.06 162.669 361.057H157.228C157.067 361.093 156.922 361.188 156.817 361.327C156.713 361.466 156.656 361.64 156.656 361.819C156.656 361.999 156.713 362.173 156.817 362.312C156.922 362.451 157.067 362.546 157.228 362.581H157.772V373.832H280.802V314.913H255.766Z" fill="#3F3D56"/>
<path opacity="0.1" d="M80.4696 120.026C79.9322 119.251 79.3228 118.54 78.6511 117.903C78.4687 117.729 78.3256 117.512 78.233 117.268C78.1404 117.025 78.1009 116.761 78.1176 116.497C78.1343 116.234 78.2067 115.978 78.3291 115.751C78.4515 115.523 78.6207 115.329 78.8232 115.185C79.0464 115.028 79.265 114.86 79.4836 114.677C82.023 112.57 83.3066 109.74 82.3439 108.354C81.3811 106.967 78.5395 107.556 76.0001 109.664C75.7065 109.902 75.4255 110.159 75.1583 110.431C74.9796 110.607 74.7663 110.735 74.5349 110.805C74.3035 110.875 74.0603 110.887 73.8244 110.837C73.5884 110.788 73.3661 110.68 73.1747 110.522C72.9833 110.363 72.8281 110.158 72.7212 109.923C72.3644 109.159 71.9457 108.432 71.4701 107.749C69.2098 104.499 66.1774 102.858 64.6938 104.087C63.2101 105.316 63.8334 108.953 66.089 112.214C66.5301 112.851 67.0202 113.446 67.5541 113.992C67.7305 114.179 67.8641 114.409 67.9442 114.664C68.0243 114.918 68.0485 115.189 68.015 115.455C67.9815 115.722 67.8912 115.976 67.7514 116.197C67.6116 116.418 67.4261 116.601 67.2099 116.729C64.4194 118.472 62.8427 121.097 63.6334 122.606C64.424 124.114 67.3169 123.927 70.0841 122.189C70.5129 121.918 70.9261 121.617 71.3213 121.29C71.5074 121.136 71.7228 121.028 71.9517 120.976C72.1806 120.924 72.4173 120.928 72.6446 120.989C72.8718 121.049 73.0839 121.164 73.2653 121.325C73.4467 121.486 73.5929 121.69 73.6932 121.92C74.0706 122.821 74.5385 123.673 75.0885 124.46C77.3442 127.711 80.3812 129.351 81.8648 128.122C83.3485 126.893 82.7252 123.281 80.4696 120.026Z" fill="#3B9CBE"/>
<path opacity="0.1" d="M409.901 207.799C410.426 207.014 410.873 206.172 411.236 205.285C411.333 205.044 411.481 204.831 411.667 204.663C411.853 204.495 412.073 204.377 412.308 204.318C412.543 204.259 412.787 204.26 413.022 204.322C413.257 204.384 413.475 204.505 413.659 204.675C413.864 204.858 414.078 205.036 414.296 205.213C416.882 207.245 419.738 207.753 420.668 206.356C421.598 204.96 420.259 202.151 417.673 200.109C417.363 199.869 417.053 199.65 416.742 199.454C416.537 199.317 416.363 199.131 416.234 198.909C416.106 198.687 416.026 198.436 416.001 198.175C415.976 197.913 416.007 197.649 416.092 197.403C416.176 197.157 416.311 196.936 416.487 196.757C417.052 196.163 417.566 195.514 418.021 194.816C420.212 191.51 420.761 187.863 419.254 186.69C417.747 185.516 414.743 187.198 412.552 190.525C412.124 191.166 411.746 191.846 411.422 192.556C411.309 192.795 411.147 193.002 410.948 193.16C410.749 193.318 410.518 193.423 410.275 193.466C410.032 193.509 409.783 193.489 409.549 193.408C409.314 193.326 409.1 193.186 408.924 192.998C406.599 190.616 403.808 189.712 402.734 190.966C401.66 192.221 402.655 195.197 404.985 197.569C405.347 197.935 405.731 198.274 406.134 198.585C406.323 198.735 406.48 198.929 406.592 199.153C406.704 199.377 406.769 199.626 406.781 199.881C406.794 200.136 406.755 200.391 406.666 200.627C406.578 200.863 406.442 201.075 406.269 201.247C405.586 201.914 404.973 202.662 404.441 203.476C402.25 206.783 401.701 210.43 403.213 211.603C404.725 212.776 407.71 211.11 409.901 207.799Z" fill="#3B9CBE"/>
<path d="M412.282 379.256C420.964 379.256 428.002 377.778 428.002 375.955C428.002 374.131 420.964 372.653 412.282 372.653C403.6 372.653 396.562 374.131 396.562 375.955C396.562 377.778 403.6 379.256 412.282 379.256Z" fill="#3B9CBE"/>
<path d="M412.022 377.169C413.034 377.169 413.854 375.997 413.854 374.553C413.854 373.108 413.034 371.937 412.022 371.937C411.01 371.937 410.189 373.108 410.189 374.553C410.189 375.997 411.01 377.169 412.022 377.169Z" fill="#3F3D56"/>
<path d="M412.022 373.969C413.034 373.969 413.854 372.797 413.854 371.353C413.854 369.908 413.034 368.737 412.022 368.737C411.01 368.737 410.189 369.908 410.189 371.353C410.189 372.797 411.01 373.969 412.022 373.969Z" fill="#3F3D56"/>
<path d="M412.022 370.774C413.034 370.774 413.854 369.603 413.854 368.158C413.854 366.713 413.034 365.542 412.022 365.542C411.01 365.542 410.189 366.713 410.189 368.158C410.189 369.603 411.01 370.774 412.022 370.774Z" fill="#3F3D56"/>
<path d="M412.022 367.574C413.034 367.574 413.854 366.403 413.854 364.958C413.854 363.514 413.034 362.342 412.022 362.342C411.01 362.342 410.189 363.514 410.189 364.958C410.189 366.403 411.01 367.574 412.022 367.574Z" fill="#3F3D56"/>
<path d="M412.022 364.374C413.034 364.374 413.854 363.203 413.854 361.758C413.854 360.314 413.034 359.143 412.022 359.143C411.01 359.143 410.189 360.314 410.189 361.758C410.189 363.203 411.01 364.374 412.022 364.374Z" fill="#3F3D56"/>
<path d="M412.022 361.179C413.034 361.179 413.854 360.008 413.854 358.564C413.854 357.119 413.034 355.948 412.022 355.948C411.01 355.948 410.189 357.119 410.189 358.564C410.189 360.008 411.01 361.179 412.022 361.179Z" fill="#3F3D56"/>
<path d="M412.022 357.979C413.034 357.979 413.854 356.808 413.854 355.364C413.854 353.919 413.034 352.748 412.022 352.748C411.01 352.748 410.189 353.919 410.189 355.364C410.189 356.808 411.01 357.979 412.022 357.979Z" fill="#3F3D56"/>
<path d="M418.873 333.477C419.121 333.128 419.347 332.762 419.552 332.38L414.747 331.517L419.947 331.563C420.447 330.377 420.72 329.092 420.749 327.787C420.778 326.482 420.562 325.185 420.114 323.974L413.138 327.926L419.575 322.76C418.969 321.628 418.157 320.643 417.189 319.868C416.221 319.092 415.117 318.542 413.946 318.252C412.775 317.961 411.562 317.936 410.382 318.179C409.202 318.422 408.08 318.926 407.086 319.662C406.092 320.397 405.247 321.348 404.603 322.455C403.96 323.562 403.531 324.802 403.344 326.097C403.157 327.392 403.216 328.716 403.516 329.985C403.817 331.255 404.353 332.444 405.092 333.477C404.703 334.02 404.368 334.606 404.092 335.225L410.338 338.78L403.678 336.342C403.21 337.849 403.092 339.46 403.335 341.03C403.579 342.599 404.176 344.078 405.073 345.332C404.057 346.745 403.425 348.441 403.249 350.227C403.074 352.013 403.362 353.817 404.081 355.433C404.8 357.049 405.92 358.411 407.315 359.364C408.709 360.318 410.321 360.823 411.966 360.823C413.611 360.823 415.223 360.318 416.617 359.364C418.012 358.411 419.132 357.049 419.851 355.433C420.57 353.817 420.858 352.013 420.683 350.227C420.507 348.441 419.875 346.745 418.859 345.332C420.073 343.644 420.733 341.559 420.733 339.412C420.733 337.266 420.073 335.181 418.859 333.493L418.873 333.477Z" fill="#3B9CBE"/>
<path opacity="0.1" d="M403.213 339.395C403.207 341.541 403.862 343.627 405.073 345.317C404.057 346.729 403.425 348.426 403.249 350.212C403.074 351.998 403.362 353.802 404.081 355.418C404.8 357.034 405.92 358.396 407.315 359.349C408.709 360.302 410.321 360.808 411.966 360.808C413.611 360.808 415.223 360.302 416.617 359.349C418.012 358.396 419.132 357.034 419.851 355.418C420.57 353.802 420.858 351.998 420.683 350.212C420.507 348.426 419.875 346.729 418.859 345.317C420.045 343.687 403.213 338.323 403.213 339.395Z" fill="black"/>
<path d="M125.788 378.235C129.718 378.235 132.904 377.566 132.904 376.742C132.904 375.917 129.718 375.249 125.788 375.249C121.858 375.249 118.672 375.917 118.672 376.742C118.672 377.566 121.858 378.235 125.788 378.235Z" fill="#3B9CBE"/>
<path d="M125.672 377.29C126.129 377.29 126.499 376.761 126.499 376.107C126.499 375.453 126.129 374.924 125.672 374.924C125.214 374.924 124.844 375.453 124.844 376.107C124.844 376.761 125.214 377.29 125.672 377.29Z" fill="#3F3D56"/>
<path d="M125.672 375.843C126.129 375.843 126.499 375.313 126.499 374.659C126.499 374.006 126.129 373.476 125.672 373.476C125.214 373.476 124.844 374.006 124.844 374.659C124.844 375.313 125.214 375.843 125.672 375.843Z" fill="#3F3D56"/>
<path d="M125.672 374.395C126.129 374.395 126.499 373.865 126.499 373.212C126.499 372.558 126.129 372.028 125.672 372.028C125.214 372.028 124.844 372.558 124.844 373.212C124.844 373.865 125.214 374.395 125.672 374.395Z" fill="#3F3D56"/>
<path d="M125.672 372.948C126.129 372.948 126.499 372.418 126.499 371.764C126.499 371.111 126.129 370.581 125.672 370.581C125.214 370.581 124.844 371.111 124.844 371.764C124.844 372.418 125.214 372.948 125.672 372.948Z" fill="#3F3D56"/>
<path d="M125.672 371.5C126.129 371.5 126.499 370.97 126.499 370.317C126.499 369.663 126.129 369.133 125.672 369.133C125.214 369.133 124.844 369.663 124.844 370.317C124.844 370.97 125.214 371.5 125.672 371.5Z" fill="#3F3D56"/>
<path d="M125.672 370.053C126.129 370.053 126.499 369.523 126.499 368.869C126.499 368.216 126.129 367.686 125.672 367.686C125.214 367.686 124.844 368.216 124.844 368.869C124.844 369.523 125.214 370.053 125.672 370.053Z" fill="#3F3D56"/>
<path d="M125.672 368.605C126.129 368.605 126.499 368.075 126.499 367.422C126.499 366.768 126.129 366.238 125.672 366.238C125.214 366.238 124.844 366.768 124.844 367.422C124.844 368.075 125.214 368.605 125.672 368.605Z" fill="#3F3D56"/>
<path d="M128.769 357.512C128.884 357.352 128.988 357.182 129.081 357.004L126.904 356.613H129.257C129.497 356.044 129.62 355.426 129.62 354.8C129.621 354.245 129.523 353.694 129.332 353.18L126.174 354.967L129.085 352.631C128.811 352.119 128.444 351.673 128.006 351.322C127.567 350.971 127.068 350.722 126.538 350.591C126.008 350.459 125.459 350.448 124.925 350.558C124.391 350.668 123.883 350.896 123.433 351.229C122.984 351.562 122.601 351.992 122.31 352.493C122.019 352.995 121.825 353.556 121.74 354.142C121.656 354.728 121.682 355.327 121.819 355.902C121.955 356.476 122.198 357.014 122.532 357.482C122.352 357.725 122.196 357.989 122.067 358.269L124.89 359.874L121.876 358.767C121.666 359.449 121.615 360.178 121.727 360.887C121.839 361.596 122.111 362.264 122.518 362.83C122.056 363.47 121.769 364.238 121.688 365.048C121.607 365.858 121.737 366.676 122.063 367.409C122.388 368.142 122.896 368.76 123.528 369.192C124.16 369.625 124.891 369.854 125.637 369.854C126.383 369.854 127.113 369.625 127.745 369.192C128.377 368.76 128.885 368.142 129.211 367.409C129.536 366.676 129.666 365.858 129.585 365.048C129.505 364.238 129.217 363.47 128.755 362.83C129.306 362.067 129.606 361.123 129.606 360.151C129.606 359.179 129.306 358.235 128.755 357.472L128.769 357.512Z" fill="#3B9CBE"/>
<path opacity="0.1" d="M121.681 360.189C121.681 361.162 121.981 362.106 122.532 362.871C122.07 363.51 121.783 364.279 121.702 365.089C121.621 365.898 121.751 366.717 122.077 367.449C122.402 368.182 122.91 368.8 123.542 369.233C124.174 369.665 124.905 369.895 125.651 369.895C126.396 369.895 127.127 369.665 127.759 369.233C128.391 368.8 128.899 368.182 129.225 367.449C129.55 366.717 129.68 365.898 129.599 365.089C129.519 364.279 129.231 363.51 128.769 362.871C129.304 362.149 121.681 359.701 121.681 360.189Z" fill="black"/>
<defs>
<linearGradient id="paint0_linear" x1="265.998" y1="372.155" x2="265.998" y2="57.7551" gradientUnits="userSpaceOnUse">
<stop stop-color="#808080" stop-opacity="0.25"/>
<stop offset="0.54" stop-color="#808080" stop-opacity="0.12"/>
<stop offset="1" stop-color="#808080" stop-opacity="0.1"/>
</linearGradient>
<linearGradient id="paint1_linear" x1="-2532.83" y1="1241.34" x2="-2516.09" y2="1241.34" gradientUnits="userSpaceOnUse">
<stop stop-color="#808080" stop-opacity="0.25"/>
<stop offset="0.54" stop-color="#808080" stop-opacity="0.12"/>
<stop offset="1" stop-color="#808080" stop-opacity="0.1"/>
</linearGradient>
<linearGradient id="paint2_linear" x1="31396.8" y1="74095.7" x2="31396.8" y2="51720.6" gradientUnits="userSpaceOnUse">
<stop stop-color="#808080" stop-opacity="0.25"/>
<stop offset="0.54" stop-color="#808080" stop-opacity="0.12"/>
<stop offset="1" stop-color="#808080" stop-opacity="0.1"/>
</linearGradient>
</defs>
</svg>
