<svg width="513" height="399" viewBox="0 0 513 399" fill="none" xmlns="http://www.w3.org/2000/svg">
<g clip-path="url(#clip0)">
<path d="M399.318 180.94C398.359 178.257 399.729 176.916 400.278 174.531C400.826 172.146 399.044 164.693 399.044 164.693C399.044 164.693 393.289 138.906 391.507 133.838C390.753 131.693 389.116 130.218 387.478 129.227C387.367 128.569 387.206 128.145 386.985 128.024C385.397 127.161 381.443 125.285 378.808 124.766C378.315 123.845 377.73 122.986 377.065 122.203C377.528 121.237 377.742 120.153 377.686 119.066C377.518 116.253 375.56 113.733 375.815 110.929C376.008 108.802 377.437 107.055 377.989 105.003C378.22 104.082 378.275 103.119 378.15 102.174C378.025 101.228 377.722 100.321 377.261 99.5085C377.666 99.9775 378.072 100.447 378.477 100.916C379.029 100.017 379.294 98.946 379.233 97.8674C379.172 96.7887 378.787 95.7617 378.138 94.9434C376.854 93.4011 374.708 92.8226 373.712 91.0465C372.689 89.2214 373.238 86.7414 372.27 84.8807C369.9 80.3225 363.831 83.5537 360.196 81.9628C358.702 81.309 357.567 80.5894 355.886 80.6411C354.457 80.7303 353.044 81.0172 351.682 81.4951C349.728 82.1102 348.027 83.4362 346.864 85.2516C346.979 85.1095 347.104 84.9785 347.24 84.8603C348.121 84.1095 349.666 84.172 350.131 85.2791C350.242 85.5573 350.289 85.861 350.267 86.1634C350.19 87.498 349.118 88.4947 348.053 89.1626C346.988 89.8305 345.79 90.3892 345.095 91.4922C343.948 93.3123 344.622 95.755 344.623 97.9618C344.613 99.3642 344.315 100.746 343.749 102.007C343.184 103.267 342.365 104.374 341.355 105.244L345.222 103.525C343.375 107.04 342.163 110.906 341.651 114.916L346.879 110.218C344.943 113.57 343.766 117.375 343.445 121.318L347.642 116.641C347.833 117.006 347.929 117.421 347.919 117.842L347.481 119.678C347.327 120.042 347.155 120.398 346.968 120.743C346.292 122.005 345.594 123.557 346.226 124.845L346.229 124.843C345.564 127.276 344.561 129.711 342.33 130.894C344.805 131.176 347.387 129.83 348.505 127.688C348.687 128.073 348.907 128.436 349.161 128.77C349.233 128.868 349.304 128.965 349.375 129.062L348.758 129.509L347.106 130.708C347.106 130.708 336.28 133.092 336.965 137.564C336.993 137.748 337.027 137.968 337.065 138.214L333.95 143.974L329.427 160.668C329.427 160.668 327.098 166.034 327.509 168.27C327.92 170.506 327.509 171.4 327.509 175.425C327.509 179.45 325.727 181.089 327.509 184.368C329.29 187.648 334.635 197.187 334.635 197.187L335.809 198.145C335.752 198.72 335.772 199.302 335.868 199.871C336.965 205.833 347.243 262.922 347.243 262.922C347.243 262.922 342.035 308.087 352.587 310.919C353.911 311.274 355.21 311.597 356.473 311.883L358.069 323.291L357.11 337.75C357.11 337.75 349.847 355.637 363.139 356.68C376.432 357.723 370.403 341.178 370.403 341.178C371.104 339.765 371.391 338.152 371.225 336.557C371.089 335.23 369.948 328.325 368.829 321.684C373.874 321.026 372.93 315.203 372.258 312.642C372.549 312.458 372.767 312.162 372.869 311.813C373.021 311.219 372.668 308.88 372.026 305.602C371.504 302.343 370.611 297.068 370.002 293.495L373.281 294.075L387.122 205.833C387.122 205.833 387.213 204.428 387.171 202.373C389.064 201.309 391.015 200.373 393.014 199.572C397.537 197.635 399.318 190.48 400.826 187.499C402.333 184.518 400.278 183.623 399.318 180.94ZM350.175 124.756C350.623 124.42 351.148 124.227 351.691 124.197C351.574 124.89 350.477 125.093 349.558 125.456C349.727 125.187 349.935 124.951 350.175 124.756ZM343.269 169.165C344.379 171.149 342.369 176.525 340.557 180.791C339.519 179.818 338.436 180.125 339.706 177.363C340.571 175.612 341.085 173.682 341.213 171.699C341.213 171.358 341.374 168.854 342.724 167.813C342.866 168.281 343.048 168.734 343.269 169.165ZM339.11 186.288C339.738 186.01 340.689 185.583 341.974 185.108C341.359 185.986 340.656 187.033 339.949 188.176C339.682 187.956 339.467 187.67 339.321 187.342C339.175 187.014 339.102 186.653 339.11 186.288ZM383.559 188.244C382.725 187.281 382.052 186.42 381.498 185.649C382.532 185.945 383.584 186.264 384.655 186.604C385.189 186.691 385.733 186.652 386.252 186.489C386.299 187.519 386.299 188.989 386.299 188.989L384.798 190.12C384.456 189.442 384.04 188.813 383.559 188.244V188.244ZM387.811 183.075C387.795 183.09 387.778 183.107 387.762 183.123C387.688 182.534 387.565 181.953 387.396 181.387C386.498 178.306 386.018 172.84 385.762 168.175L388.355 177.661C388.355 177.661 388.492 182.431 387.811 183.075Z" fill="#D0CDE1"/>
<path d="M334.579 143.896C334.579 143.896 320.519 117.612 320.08 114.745C319.64 111.877 312.611 106.62 312.611 106.62C310.209 104.008 306.268 103.181 302.121 103.224C303.683 101.819 298.107 100.874 297.673 99.93C297.233 98.9743 295.915 98.9743 294.158 97.5406C292.4 96.107 288.014 97.3015 288.013 97.3017C287.353 95.7925 286.895 94.1888 286.65 92.5389C288.523 90.1295 289.548 87.0756 289.544 83.9208C289.544 83.8865 289.542 83.8528 289.542 83.8185C289.654 84.0078 289.766 84.1983 289.878 84.3946C290.701 79.0322 292.153 74.5749 289.384 69.6832C287.422 66.2162 284.349 63.6614 280.758 62.5105L278.121 64.8054L279.146 62.1286C278.284 61.9856 277.411 61.9307 276.54 61.9648L274.167 65.2832L275.149 62.0784C273.09 62.3568 271.106 63.0961 269.323 64.2499C267.54 65.4036 265.995 66.9468 264.788 68.782C261.768 73.5186 261.97 80.1029 264.94 84.8766C264.95 84.8432 264.958 84.8105 264.968 84.7771C265.099 87.0103 265.743 89.1721 266.841 91.0644C267.94 92.9568 269.457 94.5192 271.254 95.6087L272 102.101C271.328 102.78 270.467 103.193 269.554 103.275C268.235 103.275 266.917 107.098 266.917 107.098C266.917 107.098 266.17 107.508 265.365 109.444C263.291 110.98 256.965 115.804 254.617 119.176C253.229 119.919 251.737 121.572 251.979 125.258C252.419 131.949 251.979 163.011 251.979 163.011C251.979 163.011 248.025 189.295 249.343 191.207C250.661 193.118 248.904 199.331 248.904 199.331L250.222 199.649V201.242C250.222 201.242 246.257 221.232 252.419 220.358C262.524 218.924 255.055 202.676 255.055 202.676V200.817L256.812 201.242C256.812 201.242 257.691 194.552 259.448 194.074C260.06 193.908 260.777 192.121 261.453 189.864C261.847 193.386 262.084 195.508 262.084 195.508L264.834 194.843L265.599 197.897C265.788 198.012 265.986 198.109 266.19 198.188L265.599 201.72C265.599 201.72 265.16 205.543 265.599 207.933C265.821 209.138 273.977 234.895 282.007 260.134L281.856 266.235C281.856 266.235 277.901 271.014 278.78 274.359C279.659 277.704 276.583 305.422 276.583 305.422L273.947 319.28L274.61 319.502L274.002 321.931C273.477 322.219 273.011 322.617 272.629 323.104C269.114 327.404 264.721 339.83 264.721 339.83C264.721 339.83 256.812 352.733 269.114 352.255C281.416 351.777 282.295 346.998 282.295 346.998C282.295 346.998 284.052 334.573 284.052 334.095C284.052 333.617 283.174 328.705 283.174 328.705L282.832 328.295L283.071 322.334L285.371 323.104C285.371 323.104 287.567 310.678 289.325 309.245C289.939 308.744 291.573 303.162 293.439 295.993C295.346 301.966 297.193 322.618 297.792 324.492C297.58 324.808 297.393 325.142 297.233 325.493C295.258 329.615 293.057 333.605 290.643 337.44C290.643 337.44 276.583 346.52 290.643 348.909C290.643 348.909 298.551 349.387 302.505 346.52C306.46 343.653 317.004 339.352 317.004 338.396C317.004 337.44 314.368 323.39 311.732 324.919L309.966 320.502L311.732 319.758L300.609 265.451C300.872 264.294 301.065 263.119 301.187 261.934C301.187 259.431 306.876 210.702 308.324 198.342C314.696 200.306 320.519 185.95 320.519 185.95L321.964 183.122L324.034 184.516C324.034 184.516 325.792 179.737 328.428 179.259C331.064 178.782 335.897 153.454 335.897 150.108C335.856 147.961 335.408 145.845 334.579 143.896ZM314.108 181.338C313.676 180.591 313.174 179.894 312.611 179.259C313.759 176.005 314.642 172.647 315.247 169.224C316.126 163.967 313.929 146.763 313.929 146.763L313.89 145.595C316.047 148.674 318.762 152.779 318.762 153.931C318.762 154.488 318.881 155.037 319.11 155.534C319.338 156.032 319.671 156.465 320.08 156.799L317.444 166.834C317.444 166.834 315.686 171.613 315.247 174.003C314.984 175.419 314.837 176.859 314.807 178.304L315.43 178.723L314.108 181.338Z" fill="#D0CDE1"/>
<path d="M133.438 152.741L135.783 152.167L126.117 122.538L105.247 114.175C105.247 114.175 105.167 114.272 105.02 114.438C103.24 112.564 102.484 109.845 102.168 107.705C103.847 106.967 105.355 105.836 106.585 104.392C107.815 102.947 108.736 101.225 109.284 99.349C109.832 97.4725 109.992 95.4876 109.753 93.5361C109.514 91.5846 108.882 89.7145 107.902 88.0592C109.622 87.6102 110.236 85.9133 110.813 83.8899C110.456 83.7752 110.091 83.6888 109.722 83.6316C109.993 82.972 110.263 82.3123 110.534 81.6527C110.058 81.6063 109.583 81.5599 109.108 81.5134C109.229 80.8968 109.351 80.2802 109.472 79.6636C108.866 80.1187 108.26 80.5738 107.654 81.029C107.86 80.3816 107.911 79.688 107.803 79.0132C107.694 78.3384 107.43 77.7047 107.035 77.1715C106.23 76.1136 105.18 75.3084 103.994 74.8391C101.673 73.8461 99.1461 73.5679 96.6899 74.0348C94.2336 74.5017 91.9431 75.6958 90.07 77.486L89.9386 76.9291C86.2293 80.0306 83.8022 84.6055 83.1894 89.6505C82.6075 94.6375 84.8101 99.7153 87.6729 103.662C87.6488 103.489 87.623 103.318 87.5967 103.146C87.7204 103.331 87.8482 103.513 87.9801 103.692L88.332 118.237L87.4506 119.059C87.4492 119.06 72.6626 126.336 72.0862 135.027L72.0845 135.033C71.197 139.264 70.7576 161.247 70.7576 161.247H71.9743L70.7576 169.849L62.8491 203.301C62.8491 203.301 52.7439 217.638 61.5311 220.505C66.9914 222.287 68.5494 215.396 68.9466 209.923C69.263 211.279 70.2092 212.197 72.0757 212.381C72.2226 212.396 72.3794 212.408 72.5311 212.421C68.3762 224.1 71.197 262.081 71.197 262.081C69.0002 266.86 94.9223 299.834 94.9223 299.834L96.4832 298.929L96.821 299.664C95.9523 299.754 95.3617 299.834 95.3617 299.834V314.649C95.3617 314.649 91.4074 329.463 96.6798 332.331C98.044 333.073 99.4669 332.533 100.827 331.328C100.567 335.9 100.195 342.722 100.195 344.278C100.195 346.667 105.906 350.968 105.906 350.968C105.906 350.968 107.224 356.225 117.769 356.225C128.314 356.225 120.405 342.366 120.405 342.366L114.693 328.508C114.693 328.508 114.266 328.735 112.973 327.59L113.436 322.048L116.012 322.295L119.526 266.382C119.526 266.382 122.602 216.682 123.041 209.036C123.144 206.584 123.091 204.128 122.882 201.685L135.783 172.716L133.438 152.741ZM123.92 171.283L122.602 176.279V165.23L123.92 171.283ZM69.0692 206.722C69.0801 204.971 69.0002 203.779 69.0002 203.779L77.5896 185.094L77.348 190.876C77.348 190.876 70.4689 200.341 69.0692 206.722ZM89.2107 260.648L97.5585 228.629L102.391 267.338L102.045 281.411C101.456 280.117 100.984 278.766 100.634 277.374C99.3159 271.639 89.2107 260.648 89.2107 260.648Z" fill="#D0CDE1"/>
<path d="M208.107 336.706C203.99 334.863 195.999 330.912 195.031 328.805C194.062 326.698 189.219 310.367 189.219 310.367L187.972 310.466C187.811 303.048 187.124 274.296 186.071 270.859C186.071 270.859 191.156 225.293 180.986 207.119L179.153 199.066C179.755 195.838 179.677 188.363 179.291 187.101C178.806 185.521 184.86 180.516 183.165 177.356C181.47 174.195 176.869 163.396 176.869 163.396C176.869 163.396 177.353 156.548 170.815 150.226C170.815 150.226 168.905 138.461 160.295 138.286C159.131 136.076 157.502 132.563 157.981 130.999C158.494 129.324 160.457 124.103 161.565 121.181C162.154 120.891 162.719 120.549 163.256 120.157C170.103 116.82 174.93 108.798 174.93 99.4271C174.93 89.3953 169.401 80.9055 161.78 78.0587C162.12 77.0856 162.258 76.0433 162.187 75.0055C162.115 73.9676 161.835 72.9595 161.366 72.0524C160.897 71.1453 160.25 70.3614 159.472 69.7559C158.694 69.1504 157.803 68.7383 156.862 68.5485C155.921 68.3587 154.953 68.3959 154.027 68.6576C153.101 68.9193 152.239 69.3989 151.502 70.0627C150.765 70.7265 150.171 71.5583 149.762 72.4992C149.353 73.4401 149.139 74.4672 149.135 75.5079C148.716 74.4275 148.549 73.251 148.65 72.0835C148.751 70.9159 149.116 69.7937 149.713 68.817C150.309 67.8403 151.119 67.0395 152.069 66.486C153.02 65.9326 154.082 65.6437 155.16 65.6453C155.584 65.6459 156.007 65.6913 156.424 65.7809C154.988 65.0382 153.353 64.8905 151.824 65.3654C150.296 65.8402 148.979 66.9051 148.12 68.3604C147.262 69.8157 146.921 71.5616 147.161 73.2709C147.401 74.9801 148.206 76.5355 149.425 77.6454C149.5 77.9055 149.589 78.1606 149.692 78.4095C142.521 81.5567 137.406 89.7788 137.406 99.4271C137.406 108.377 141.809 116.097 148.169 119.68C148.135 122.591 147.471 127.5 143.78 130.491C141.873 129.543 139.227 128.503 137.529 128.975C136.651 128.23 135.326 127.985 133.523 129.945C129.891 133.896 126.743 144.169 126.743 150.49C126.743 156.811 127.47 193.422 127.47 193.422C127.47 193.422 123.595 195.003 126.259 197.373C126.809 197.872 127.499 198.151 128.215 198.164L130.86 219.498C130.86 219.498 129.165 240.042 135.703 240.306C136.215 240.336 136.725 240.2 137.166 239.915L132.313 263.747C132.313 263.747 121.174 271.649 112.456 287.189C107.966 295.193 105.727 300.117 104.609 303.016L103.012 301.939L97.4424 313.528C97.4424 313.528 85.0924 321.693 87.7562 327.751C90.4199 333.809 92.8414 335.39 92.8414 335.39L94.5365 334.599L97.6845 340.921C97.6845 340.921 105.918 353.827 119.236 347.242C119.861 346.329 120.199 345.22 120.199 344.081C120.199 342.943 119.861 341.834 119.236 340.921C117.057 337.497 111.487 330.122 111.487 330.122L115.12 310.104L114.368 309.597L137.398 279.288C137.398 279.288 144.178 274.81 146.6 270.859C149.021 266.908 164.035 226.083 164.035 226.083L172.51 268.752C172.51 268.752 172.026 284.292 174.205 294.301C175.393 299.915 176.168 305.624 176.522 311.372L175.9 311.421L177.353 323.274C177.353 323.274 171.057 340.131 175.416 341.448C178.517 342.319 181.674 342.935 184.86 343.291L185.345 341.448C185.345 341.448 203.99 352.51 210.771 344.345C210.771 344.345 212.224 338.55 208.107 336.706ZM141.757 207.382C142.483 208.172 142.241 211.86 142.241 211.86L140.788 222.132L139.337 229.257C139.136 225.891 138.731 222.543 138.124 219.235L137.454 199.549C137.586 199.64 137.73 199.705 137.882 199.744C138.366 199.744 138.124 195.266 138.124 195.266C138.124 195.266 138.407 194.466 138.76 193.204C139.701 196.27 140.85 198.27 142.241 198.69L142.483 202.114C142.483 202.114 139.335 203.695 142.241 203.695C142.409 203.688 142.577 203.661 142.74 203.614L142.483 205.012C142.483 205.012 141.03 206.592 141.757 207.382Z" fill="#D0CDE1"/>
<path d="M203.968 348.976C311.475 348.976 398.626 347.414 398.626 345.486C398.626 343.559 311.475 341.996 203.968 341.996C96.4613 341.996 9.30988 343.559 9.30988 345.486C9.30988 347.414 96.4613 348.976 203.968 348.976Z" fill="#3F3D56"/>
<path d="M272.097 363.518C390.354 363.518 486.22 359.482 486.22 354.502C486.22 349.523 390.354 345.486 272.097 345.486C153.84 345.486 57.9744 349.523 57.9744 354.502C57.9744 359.482 153.84 363.518 272.097 363.518Z" fill="#3F3D56"/>
<path d="M232.578 376.897C290.614 376.897 337.662 372.86 337.662 367.881C337.662 362.901 290.614 358.865 232.578 358.865C174.543 358.865 127.495 362.901 127.495 367.881C127.495 372.86 174.543 376.897 232.578 376.897Z" fill="#3F3D56"/>
<path d="M384.454 383.295C410.297 383.295 431.247 381.211 431.247 378.642C431.247 376.072 410.297 373.988 384.454 373.988C358.611 373.988 337.662 376.072 337.662 378.642C337.662 381.211 358.611 383.295 384.454 383.295Z" fill="#3F3D56"/>
<path d="M320.281 399C332.538 399 342.475 396.917 342.475 394.347C342.475 391.777 332.538 389.693 320.281 389.693C308.025 389.693 298.088 391.777 298.088 394.347C298.088 396.917 308.025 399 320.281 399Z" fill="#3F3D56"/>
<path d="M139.528 379.223C151.785 379.223 161.721 377.14 161.721 374.57C161.721 372 151.785 369.916 139.528 369.916C127.271 369.916 117.334 372 117.334 374.57C117.334 377.14 127.271 379.223 139.528 379.223Z" fill="#3F3D56"/>
<path d="M249.156 321.928L251.296 338.215L261.991 337.052L260.921 320.183L249.156 321.928Z" fill="#FFB8B8"/>
<path d="M198.353 321.928L196.214 338.215L185.518 337.052L186.588 320.183L198.353 321.928Z" fill="#FFB8B8"/>
<path d="M182.844 153.244C182.844 153.244 173.218 165.459 175.357 184.654C177.497 203.85 181.24 247.475 181.24 247.475L183.914 324.837L201.027 323.674L203.701 257.945L212.257 205.013L235.252 266.67C235.252 266.67 246.483 324.255 247.017 324.255C247.552 324.255 263.061 322.51 263.061 322.51L255.574 254.455C255.574 254.455 243.809 155.571 236.857 153.826C229.904 152.081 182.844 153.244 182.844 153.244Z" fill="#2F2E41"/>
<path d="M263.06 334.725C263.06 334.725 253.435 327.745 249.691 335.889C245.948 344.032 249.156 349.849 249.156 349.849C249.156 349.849 252.365 352.176 250.761 354.502C249.156 356.829 248.622 371.952 262.526 369.626C276.43 367.299 269.478 351.594 269.478 351.594L263.06 334.725Z" fill="#2F2E41"/>
<path d="M184.449 334.725C184.449 334.725 194.075 327.745 197.818 335.889C201.561 344.032 198.353 349.849 198.353 349.849C198.353 349.849 195.144 352.176 196.748 354.502C198.353 356.829 198.888 371.952 184.983 369.626C171.079 367.299 178.031 351.594 178.031 351.594L184.449 334.725Z" fill="#2F2E41"/>
<path d="M195.946 40.1093C195.946 40.1093 200.759 54.6511 197.016 62.7945C193.272 70.9379 202.898 80.2446 202.898 80.2446C202.898 80.2446 228.033 66.2845 224.824 59.3045C221.615 52.3244 216.268 43.0177 217.337 37.201L195.946 40.1093Z" fill="#FFB8B8"/>
<path d="M205.305 45.6352C214.756 45.6352 222.418 37.3017 222.418 27.0217C222.418 16.7418 214.756 8.40828 205.305 8.40828C195.854 8.40828 188.192 16.7418 188.192 27.0217C188.192 37.3017 195.854 45.6352 205.305 45.6352Z" fill="#FFB8B8"/>
<path d="M193.005 61.922C193.005 61.922 210.176 77.4632 222.981 55.4417L236.322 63.667L243.274 152.081C243.274 152.081 204.235 176.511 185.518 155.571L188.192 73.5554L193.005 61.922Z" fill="#D0CDE1"/>
<path d="M198.397 53.2159L174.288 70.6468L182.844 113.69L171.614 180.582L189.796 150.917L198.397 53.2159Z" fill="#575A89"/>
<path d="M219.705 48.3641L225.626 52.6152L249.691 61.922L245.948 134.049L256.108 180.583L241.67 188.726C241.67 188.726 238.996 166.623 222.418 155.571C205.84 144.519 215.923 51.6747 219.705 48.3641Z" fill="#575A89"/>
<path d="M179.636 161.388L186.588 166.623C186.588 166.623 177.764 176.802 176.16 175.057C175.695 174.572 175.335 173.982 175.104 173.328C174.873 172.675 174.777 171.974 174.823 171.276L173.218 167.204L179.636 161.388Z" fill="#FFB8B8"/>
<path d="M225.851 160.256L223.487 164.296C223.487 164.296 216.535 167.786 218.139 170.113C219.744 172.439 233.113 177.674 235.787 172.439L238.461 167.204L225.851 160.256Z" fill="#FFB8B8"/>
<path d="M177.497 70.0654L173.753 70.647L167.603 113.981C167.603 113.981 165.197 121.834 167.871 140.447C170.544 159.061 173.192 171.182 173.192 171.182L184.983 161.969L179.636 146.846L186.588 91.5872L177.497 70.0654Z" fill="#575A89"/>
<path d="M241.135 60.7586L249.691 61.922C249.691 61.922 259.317 72.9737 260.921 84.6071C262.526 96.2405 261.991 129.396 261.991 129.396L237.391 171.858L224.022 161.388L242.739 125.324L233.648 82.2804L241.135 60.7586Z" fill="#575A89"/>
<path d="M221.624 10.1867C219.036 5.61597 214.985 2.24784 210.252 0.730558L206.775 3.756L208.126 0.227161C206.99 0.0385349 205.839 -0.0337915 204.69 0.0111292L201.562 4.38602L202.856 0.160985C200.142 0.527908 197.527 1.50263 195.176 3.02368C192.825 4.54473 190.789 6.57912 189.197 8.99856C185.215 15.2431 184.543 23.9273 188.459 30.2207C189.535 26.6274 190.839 23.2557 191.914 19.6623C192.759 19.7876 193.615 19.7921 194.461 19.6758L195.769 16.3564L196.135 19.5354C200.188 19.1512 206.201 18.3079 210.044 17.5351L209.671 15.0964L211.907 17.123C213.084 16.8281 213.783 16.5608 213.725 16.3564C216.584 21.3683 219.416 24.5696 222.274 29.5814C223.359 22.512 225.274 16.6356 221.624 10.1867Z" fill="#2F2E41"/>
<path d="M220.676 28.9571C221.316 28.9571 221.835 27.8288 221.835 26.437C221.835 25.0452 221.316 23.9169 220.676 23.9169C220.036 23.9169 219.518 25.0452 219.518 26.437C219.518 27.8288 220.036 28.9571 220.676 28.9571Z" fill="#FFB8B8"/>
<path d="M405.775 355.421C406.268 373.778 396.407 380.505 384.032 380.898C383.744 380.907 383.458 380.913 383.173 380.915C382.599 380.92 382.031 380.909 381.468 380.884C370.276 380.378 361.417 373.917 360.959 356.845C360.484 339.178 380.645 316.223 382.157 314.526L382.16 314.524C382.217 314.459 382.247 314.427 382.247 314.427C382.247 314.427 405.282 337.066 405.775 355.421Z" fill="#3B9CBE"/>
<path d="M383.141 378.116L391.002 365.401L383.157 379.484L383.173 380.915C382.599 380.92 382.031 380.909 381.468 380.884L381.858 362.492L381.847 362.35L381.862 362.323L381.899 360.585L373.29 346.99L381.889 359.284L381.919 359.651L382.214 345.755L374.778 331.66L382.235 343.314L382.157 314.526L382.157 314.43L382.16 314.524L382.654 337.213L389.43 327.997L382.676 339.168L382.824 351.598L389.06 339.467L382.847 353.425L382.929 360.336L391.998 343.438L382.957 362.747L383.141 378.116Z" fill="#3F3D56"/>
<path d="M119.135 328.083C119.628 346.439 109.767 353.167 97.3923 353.56C97.1049 353.569 96.8187 353.574 96.5339 353.576C95.96 353.581 95.3916 353.571 94.8289 353.545C83.6368 353.04 74.7777 346.578 74.3193 329.506C73.845 311.84 94.0054 288.885 95.518 287.187L95.5207 287.185C95.5781 287.121 95.6076 287.088 95.6076 287.088C95.6076 287.088 118.643 309.728 119.135 328.083Z" fill="#3B9CBE"/>
<path d="M96.5014 350.778L104.362 338.062L96.5174 352.146L96.5338 353.576C95.96 353.581 95.3916 353.571 94.8289 353.545L95.2188 335.153L95.2081 335.011L95.2225 334.984L95.2598 333.246L86.651 319.651L95.2497 331.945L95.2802 332.313L95.5747 318.417L88.1389 304.322L95.5958 315.976L95.518 287.187L95.5182 287.091L95.5207 287.185L96.0143 309.875L102.791 300.658L96.0365 311.829L96.1844 324.259L102.42 312.128L96.2073 326.086L96.2896 332.998L105.359 316.1L96.3172 335.409L96.5014 350.778Z" fill="#3F3D56"/>
<path d="M333.322 381.3C333.612 392.075 327.823 396.024 320.56 396.255C320.391 396.26 320.223 396.263 320.056 396.264C319.719 396.267 319.385 396.261 319.055 396.246C312.485 395.949 307.285 392.156 307.016 382.136C306.738 371.766 318.572 358.292 319.459 357.295L319.461 357.294C319.495 357.256 319.512 357.237 319.512 357.237C319.512 357.237 333.033 370.526 333.322 381.3Z" fill="#3B9CBE"/>
<path d="M320.037 394.622L324.651 387.158L320.046 395.425L320.056 396.264C319.719 396.267 319.385 396.261 319.055 396.246L319.284 385.45L319.278 385.367L319.286 385.351L319.308 384.331L314.255 376.351L319.302 383.567L319.32 383.783L319.493 375.627L315.128 367.353L319.505 374.194L319.459 357.295L319.46 357.239L319.461 357.294L319.751 370.613L323.729 365.203L319.764 371.76L319.851 379.056L323.511 371.935L319.864 380.128L319.912 384.185L325.236 374.266L319.929 385.6L320.037 394.622Z" fill="#3F3D56"/>
<path d="M512.953 29.774C512.969 29.7209 512.985 29.6672 513 29.614C512.994 29.6373 512.985 29.6598 512.979 29.6832L512.953 29.774Z" fill="#2F2E41"/>
<path d="M438.222 338.421L477.832 274.352L438.303 345.313L438.386 352.523C435.494 352.547 432.631 352.494 429.795 352.365L431.76 259.694L431.706 258.979L431.778 258.841L431.966 250.084L388.589 181.582L431.915 243.53L432.069 245.381L433.553 175.364L396.087 104.344L433.66 163.064L433.267 18.0067L433.268 17.5239L433.281 17.9987L435.768 132.323L469.914 85.8846L435.88 142.172L436.625 204.801L468.046 143.678L436.741 214.008L437.155 248.833L482.851 163.689L437.294 260.982L438.222 338.421Z" fill="#3F3D56"/>
<path d="M33.7739 335.937L60.7271 292.34L33.829 340.627L33.8852 345.533C31.9175 345.549 29.969 345.514 28.0395 345.426L29.3763 282.366L29.3397 281.879L29.389 281.785L29.517 275.827L3.05176e-05 229.213L29.4822 271.367L29.5868 272.626L30.5965 224.982L5.10181 176.654L30.6691 216.612L30.4023 117.905L30.4028 117.576L30.4115 117.899L32.1039 195.694L55.3393 164.094L32.18 202.396L32.6871 245.013L54.0684 203.42L32.7657 251.278L33.048 274.975L64.1422 217.037L33.1425 283.242L33.7739 335.937Z" fill="#3F3D56"/>
</g>
<defs>
<clipPath id="clip0">
<rect width="513" height="399" fill="white"/>
</clipPath>
</defs>
</svg>
